<?xml version="1.0" standalone="no"?>
<!DOCTYPE svg PUBLIC "-//W3C//DTD SVG 20010904//EN"
 "http://www.w3.org/TR/2001/REC-SVG-20010904/DTD/svg10.dtd">
<svg version="1.0" xmlns="http://www.w3.org/2000/svg"
 width="512.000000pt" height="512.000000pt" viewBox="0 0 512.000000 512.000000"
 preserveAspectRatio="xMidYMid meet">
<metadata>
Created by potrace 1.14, written by Peter Selinger 2001-2017
</metadata>
<g transform="translate(0.000000,512.000000) scale(0.100000,-0.100000)"
fill="#000000" stroke="none">
<path d="M850 4556 c-197 -29 -402 -90 -454 -136 l-31 -28 -3 -181 c-3 -146
-6 -182 -19 -193 -8 -7 -56 -36 -107 -64 -61 -34 -101 -65 -123 -93 -66 -86
-63 -6 -63 -1483 0 -1186 2 -1343 15 -1376 17 -40 48 -77 80 -95 15 -9 273
-13 957 -17 929 -5 937 -5 965 -26 15 -11 37 -35 48 -53 70 -114 159 -192 264
-232 79 -30 227 -37 307 -14 128 37 226 108 300 220 74 111 -41 99 1037 105
733 4 947 8 964 18 32 18 69 71 82 117 15 57 15 2603 0 2677 -22 104 -81 194
-159 240 -93 55 -130 85 -140 112 -5 16 -10 93 -10 172 0 88 -5 153 -12 169
-15 34 -56 57 -163 93 -170 56 -345 82 -563 82 -339 0 -664 -72 -948 -209
-162 -78 -277 -157 -396 -269 -107 -101 -123 -106 -161 -56 -28 36 -193 171
-269 220 -212 136 -493 239 -788 290 -131 22 -484 28 -610 10z m539 -232 c392
-57 736 -210 952 -424 107 -105 119 -127 119 -224 l0 -79 -25 25 c-14 14 -39
28 -56 32 -62 12 -462 6 -489 -7 -20 -11 -30 -10 -50 0 -20 11 -98 14 -360 12
-184 0 -469 0 -632 0 l-298 1 0 288 c1 226 4 291 14 305 17 22 121 52 242 71
126 20 450 20 583 0z m2890 0 c137 -20 250 -49 270 -69 14 -14 16 -70 18 -483
2 -462 2 -466 -16 -415 -22 65 -63 124 -116 170 -127 110 -272 133 -842 133
-326 0 -379 -2 -409 -16 -47 -23 -67 -65 -61 -127 6 -71 36 -97 121 -106 109
-11 101 23 101 -457 l0 -416 -24 -19 c-14 -11 -39 -19 -62 -19 -52 0 -104 -22
-124 -54 -27 -40 -16 -129 19 -164 l26 -27 400 0 400 0 26 27 c20 19 28 40 31
75 9 92 -43 143 -146 143 -83 0 -91 14 -91 165 l0 125 134 0 c341 0 543 100
616 303 19 51 19 43 17 -755 l-2 -807 -22 -22 -22 -22 -128 31 c-447 109 -896
69 -1278 -113 -101 -48 -216 -121 -319 -201 -37 -30 -76 -54 -86 -54 -10 0
-28 12 -39 26 -21 27 -21 27 -21 1298 0 1085 2 1275 14 1299 69 130 312 312
554 413 166 70 392 129 562 147 102 11 401 6 499 -9z m-1824 -3131 c-3 -13
-16 -30 -29 -39 -30 -19 -42 -13 -130 58 -141 114 -309 203 -508 269 -325 107
-724 118 -1076 29 -118 -30 -136 -30 -152 1 -6 11 -10 368 -10 958 l0 941 28
0 c33 0 61 -27 89 -85 11 -22 93 -265 183 -540 121 -374 169 -507 187 -527 46
-49 150 -46 191 6 10 13 65 154 122 315 57 160 107 288 111 283 3 -4 50 -139
104 -299 104 -314 110 -325 180 -339 40 -7 96 9 120 36 10 11 95 239 190 507
94 269 181 508 192 533 29 64 64 98 117 111 26 6 56 22 69 35 l22 23 3 -1127
c1 -620 0 -1137 -3 -1149z m-515 2217 c42 0 60 -10 60 -32 0 -31 -122 -370
-130 -361 -8 8 -130 372 -130 386 0 4 19 7 43 8 23 0 51 4 62 8 11 5 30 4 43
0 13 -5 36 -9 52 -9z m-669 -29 c15 -16 34 -49 44 -73 l17 -45 -48 -133 -48
-133 -68 204 -67 204 27 7 c52 13 115 -1 143 -31z m2753 9 c50 -25 71 -73 71
-165 0 -142 -37 -176 -197 -183 l-98 -4 0 187 0 187 98 -4 c56 -2 109 -10 126
-18z"/>
</g>
</svg>
